# xmcd
#
# Track frame offsets:
#	150
#	13507
#	28044
#	44362
#	57527
#	70975
#	81227
#	90507
#	104795
#	118120
#
# Disc length: 1635 seconds
#
# Revision: 0
# Processed by: cddbd v1.5.2PL0 Copyright (c) Steve Scherf et al.
# Submitted via: EasyCDDAExtractor 10.0.6.1
#
DISCID=8806610a
DTITLE=Various Artist - Morningstar Jan.1997
DYEAR=1997
DGENRE=Gospel
TTITLE0=Carroll Roberson - His Hand In Mine
TTITLE1=Bradleys - Mr. Busman
TTITLE2=Wilburns - Back To The Cross
TTITLE3=Perrys - Power In Prayer
TTITLE4=Perrys (Live) - Power In Prayer
TTITLE5=Joani Tabor - He's My Inspiration
TTITLE6=Melody Trio - I'm Going Home
TTITLE7=Encouragers - In The Morning
TTITLE8=Joshua - You Must Be In Jesus
TTITLE9=Southern Gospel  - Commercial
EXTD=
EXTT0=
EXTT1=
EXTT2=
EXTT3=
EXTT4=
EXTT5=
EXTT6=
EXTT7=
EXTT8=
EXTT9=
PLAYORDER=
